<mxfile host="app.diagrams.net" modified="2023-04-26T10:50:22.065Z" agent="Mozilla/5.0 (X11; Linux x86_64) AppleWebKit/537.36 (KHTML, like Gecko) Chrome/110.0.0.0 Safari/537.36" etag="6JN7MiAht5OnBYOAax-Q" version="21.2.2" type="github">
  <diagram name="第 1 页" id="yYb5iaXitGKUc1ppawWV">
    <mxGraphModel dx="1434" dy="750" grid="1" gridSize="10" guides="1" tooltips="1" connect="1" arrows="1" fold="1" page="1" pageScale="1" pageWidth="827" pageHeight="1169" math="0" shadow="0">
      <root>
        <mxCell id="0" />
        <mxCell id="1" parent="0" />
        <mxCell id="er24hgmD3F4HfcU9W-8G-11" value="" style="group" vertex="1" connectable="0" parent="1">
          <mxGeometry x="245" y="210" width="190" height="120" as="geometry" />
        </mxCell>
        <mxCell id="er24hgmD3F4HfcU9W-8G-2" value="" style="ellipse;whiteSpace=wrap;html=1;fillColor=#0066CC;" vertex="1" parent="er24hgmD3F4HfcU9W-8G-11">
          <mxGeometry width="190" height="120" as="geometry" />
        </mxCell>
        <mxCell id="er24hgmD3F4HfcU9W-8G-3" value="项目" style="text;html=1;align=center;verticalAlign=middle;resizable=0;points=[];autosize=1;strokeColor=none;fillColor=none;fontColor=#FFFFFF;" vertex="1" parent="er24hgmD3F4HfcU9W-8G-11">
          <mxGeometry x="15" y="20" width="50" height="30" as="geometry" />
        </mxCell>
        <mxCell id="er24hgmD3F4HfcU9W-8G-4" value="" style="ellipse;whiteSpace=wrap;html=1;fillColor=#3399FF;" vertex="1" parent="er24hgmD3F4HfcU9W-8G-11">
          <mxGeometry x="35" y="40" width="120" height="80" as="geometry" />
        </mxCell>
        <mxCell id="er24hgmD3F4HfcU9W-8G-5" value="部件" style="text;html=1;align=center;verticalAlign=middle;resizable=0;points=[];autosize=1;strokeColor=none;fillColor=none;fontColor=#FFFFFF;" vertex="1" parent="er24hgmD3F4HfcU9W-8G-11">
          <mxGeometry x="35" y="50" width="50" height="30" as="geometry" />
        </mxCell>
        <mxCell id="er24hgmD3F4HfcU9W-8G-10" value="" style="group" vertex="1" connectable="0" parent="er24hgmD3F4HfcU9W-8G-11">
          <mxGeometry x="55" y="70" width="80" height="50" as="geometry" />
        </mxCell>
        <mxCell id="er24hgmD3F4HfcU9W-8G-6" value="" style="ellipse;whiteSpace=wrap;html=1;container=0;fillColor=#66B2FF;" vertex="1" parent="er24hgmD3F4HfcU9W-8G-10">
          <mxGeometry width="80" height="50" as="geometry" />
        </mxCell>
        <mxCell id="er24hgmD3F4HfcU9W-8G-7" value="翻译" style="text;html=1;align=center;verticalAlign=middle;resizable=0;points=[];autosize=1;strokeColor=none;fillColor=none;container=0;fontColor=#FFFFFF;" vertex="1" parent="er24hgmD3F4HfcU9W-8G-10">
          <mxGeometry width="50" height="30" as="geometry" />
        </mxCell>
      </root>
    </mxGraphModel>
  </diagram>
</mxfile>
